<?xml version="1.0" standalone="no"?>
<!DOCTYPE svg PUBLIC "-//W3C//DTD SVG 20010904//EN"
 "http://www.w3.org/TR/2001/REC-SVG-20010904/DTD/svg10.dtd">
<svg version="1.0" xmlns="http://www.w3.org/2000/svg"
 width="16.000000pt" height="16.000000pt" viewBox="0 0 16.000000 16.000000"
 preserveAspectRatio="xMidYMid meet">
<metadata>
Created by potrace 1.11, written by Peter Selinger 2001-2013
</metadata>
<g transform="translate(0.000000,16.000000) scale(0.002985,-0.002985)"
fill="#000000" stroke="none">
<path d="M1882 5340 c-66 -41 -47 -134 31 -154 32 -8 39 -15 52 -55 15 -47 30
-117 40 -194 l6 -44 -48 -13 c-164 -46 -476 -194 -598 -285 l-31 -23 -64 49
c-35 26 -79 56 -97 66 -21 11 -33 25 -33 39 0 26 -42 74 -67 75 -54 4 -76 -8
-97 -50 -17 -35 -3 -86 29 -107 31 -20 87 -12 114 17 18 20 19 20 87 -27 98
-67 103 -73 77 -93 -11 -9 -57 -45 -103 -81 -103 -80 -279 -255 -365 -363
-273 -340 -444 -735 -509 -1177 -12 -80 -21 -222 -21 -330 0 -107 12 -307 19
-320 2 -3 6 -27 10 -55 3 -27 8 -61 11 -75 3 -14 8 -38 11 -54 2 -16 7 -32 9
-36 2 -4 6 -20 9 -37 9 -50 64 -221 102 -317 222 -558 672 -1030 1218 -1280
61 -28 128 -57 149 -65 43 -17 45 -21 17 -39 -26 -16 -25 -42 1 -71 32 -34 64
-42 168 -40 103 3 131 10 131 36 0 16 16 15 100 -2 214 -44 506 -51 768 -19
23 3 42 2 42 -1 0 -21 -46 -96 -71 -114 -62 -46 -11 -116 66 -91 43 14 185
151 185 178 0 11 -12 29 -26 39 l-26 19 79 18 c133 31 332 105 478 177 126 61
347 198 415 256 14 12 45 38 70 58 183 149 386 388 518 611 166 280 262 553
317 904 24 157 24 494 0 645 -27 168 -50 269 -90 396 -285 913 -1107 1579
-2055 1666 -248 23 -550 3 -775 -51 -67 -16 -97 -20 -100 -12 -1 6 -8 45 -14
87 -6 41 -20 102 -30 135 -17 57 -17 60 0 78 68 71 -24 177 -109 126z m88 -32
c24 -26 25 -46 4 -76 -15 -22 -57 -30 -80 -14 -35 23 -34 80 3 101 28 16 50
13 73 -11z m882 -353 c54 -3 108 -8 121 -10 12 -2 45 -6 72 -10 77 -10 287
-62 385 -95 404 -135 789 -395 1051 -710 30 -36 57 -67 60 -70 3 -3 35 -47 71
-97 159 -222 293 -508 359 -765 27 -108 29 -115 48 -238 6 -36 13 -81 17 -100
3 -19 7 -125 9 -235 3 -233 -15 -400 -65 -603 -127 -508 -408 -947 -825 -1287
-164 -133 -443 -290 -660 -370 -111 -41 -322 -98 -335 -90 -5 3 -12 20 -15 38
-15 68 -97 333 -131 421 -19 51 -46 105 -60 121 -13 15 -24 35 -24 44 -1 9 -2
53 -4 98 -2 81 6 101 19 43 8 -35 22 -47 38 -31 6 6 17 11 24 11 23 0 147 62
218 110 77 52 170 143 217 211 100 149 171 364 180 547 1 23 4 42 7 42 4 -1
30 -9 59 -19 102 -35 306 -23 407 23 121 56 185 175 190 352 6 233 -81 510
-248 788 -247 411 -480 577 -711 509 -133 -39 -195 -99 -198 -190 -1 -18 -4
-33 -8 -33 -4 0 -23 14 -41 30 -92 82 -214 140 -295 140 -22 0 -34 5 -34 13 0
23 -44 57 -101 76 -30 11 -74 29 -99 40 -25 11 -59 21 -76 21 l-31 0 12 71
c34 200 -29 419 -147 508 -84 63 -160 91 -251 93 -44 0 -47 2 -47 27 0 14 5
44 10 66 12 57 23 223 22 336 l-2 96 53 12 c183 44 288 60 442 68 61 3 111 6
112 7 3 2 103 -2 205 -9z m-838 -259 c-2 -71 -5 -141 -8 -155 -3 -14 -8 -48
-11 -76 -11 -102 -16 -115 -44 -121 -93 -21 -246 -97 -303 -151 -25 -24 -48
-24 -48 -1 0 30 -141 247 -200 309 -57 60 -62 50 57 121 167 99 341 178 518
235 40 13 43 1 39 -161z m-926 68 c26 -18 30 -65 6 -88 -40 -41 -115 2 -98 56
14 46 53 59 92 32z m396 -419 c55 -85 106 -177 106 -192 0 -4 -22 -39 -49 -75
-106 -146 -172 -344 -172 -515 0 -29 2 -56 5 -61 3 -5 8 -31 12 -58 11 -83 43
-197 62 -217 36 -40 130 -83 222 -102 67 -14 213 -5 252 16 23 12 28 11 28 -6
0 -8 7 -36 16 -62 19 -55 22 -69 23 -101 1 -31 44 -72 76 -72 l25 0 1 -97 c0
-54 2 -106 4 -116 2 -10 -4 -21 -13 -24 -35 -13 -72 -45 -72 -63 0 -19 48 -65
79 -75 14 -4 21 -22 30 -83 42 -265 201 -713 333 -936 l35 -59 -46 -76 c-26
-42 -86 -144 -134 -228 -49 -83 -95 -157 -103 -163 -7 -7 -14 -24 -14 -38 0
-31 -137 -516 -157 -555 -8 -16 -28 -34 -46 -42 -29 -12 -40 -10 -127 21 -214
77 -480 228 -665 377 -79 63 -241 219 -300 287 -253 293 -444 669 -525 1030
-23 102 -24 107 -44 250 -13 90 -15 506 -3 555 3 11 8 43 11 70 5 41 35 186
51 255 56 228 181 505 325 720 134 199 329 409 515 553 l100 78 53 -58 c30
-32 77 -94 106 -138z m717 -53 c88 -41 140 -88 178 -166 62 -127 77 -283 39
-421 -61 -222 -284 -464 -496 -536 -131 -45 -288 -28 -410 44 -59 35 -67 52
-98 217 -23 121 -24 154 -9 244 44 273 185 484 392 585 66 32 162 65 169 58 3
-2 0 -26 -7 -51 -8 -31 -8 -51 -2 -57 9 -9 26 35 38 96 2 11 4 21 4 21 1 1 32
0 69 -1 50 -2 86 -11 133 -33z m374 -671 c44 -17 95 -39 113 -48 66 -33 51
-87 -60 -213 -187 -211 -426 -407 -526 -429 -57 -12 -79 6 -92 77 -5 29 -14
61 -20 72 -5 10 -10 32 -10 48 0 26 9 35 73 73 131 77 296 263 358 404 28 64
37 65 164 16z m969 -72 c110 -41 214 -130 333 -284 220 -285 365 -629 380
-902 11 -206 -35 -327 -150 -393 -62 -36 -135 -52 -242 -54 -88 -3 -140 6
-197 31 -32 13 -38 21 -39 47 -2 89 -7 167 -13 217 -6 50 -4 57 17 77 l24 23
-19 91 c-10 50 -21 94 -24 97 -3 3 -13 -5 -23 -17 -17 -23 -17 -21 -49 85 -37
121 -96 274 -146 376 -31 65 -32 68 -12 66 36 -2 37 0 10 53 -36 72 -73 128
-82 127 -42 -7 -62 5 -108 63 -46 59 -49 66 -49 123 0 47 5 68 23 93 62 87
244 127 366 81z m-646 -72 c79 -33 168 -103 243 -191 37 -44 66 -83 64 -86 -2
-4 -24 -4 -47 -1 -55 8 -285 6 -369 -4 -35 -4 -75 -8 -89 -10 -50 -5 -196 -44
-242 -64 -46 -19 -43 -16 76 102 121 120 216 236 216 263 0 22 87 17 148 -9z
m362 -311 c14 -3 30 -5 36 -5 7 -1 28 -28 48 -62 l36 -60 -53 6 c-28 3 -59 8
-67 10 -56 15 -346 22 -450 10 -318 -34 -502 -164 -545 -385 -6 -30 -13 -36
-27 -22 -7 7 -25 12 -40 12 -26 0 -28 2 -23 33 27 158 149 328 277 386 65 29
161 56 239 67 24 4 67 10 94 14 49 7 425 4 475 -4z m-60 -130 c140 -16 124 -5
185 -130 52 -109 146 -372 159 -447 6 -34 3 -40 -39 -77 -86 -75 -283 -163
-441 -196 -133 -28 -277 -39 -364 -29 l-36 5 -28 98 c-25 86 -27 103 -17 147
16 79 -3 142 -52 164 -19 8 -30 38 -66 172 -24 89 -46 167 -48 174 -11 27 206
105 332 119 33 3 61 7 62 8 6 5 301 -2 353 -8z m-933 -68 c-47 -59 -85 -137
-106 -221 -20 -77 -40 -100 -42 -45 0 18 -2 70 -3 116 l-2 83 50 25 c27 14 68
38 90 55 22 16 42 29 44 29 2 0 -12 -19 -31 -42z m225 -291 l26 -88 -22 -14
c-24 -16 -47 -56 -77 -139 l-22 -59 -13 31 c-24 57 -48 107 -74 152 -19 33
-25 55 -23 85 8 82 44 164 100 226 l37 41 22 -74 c12 -40 33 -113 46 -161z
m-275 -36 c23 -2 132 -196 158 -279 13 -44 39 -21 70 66 49 134 81 158 135
100 22 -24 21 -105 -3 -179 -21 -64 -94 -210 -117 -233 -46 -47 -91 3 -176
195 -69 153 -86 177 -174 231 -38 24 -70 48 -70 54 0 35 84 56 177 45z m24
-303 c23 -57 45 -108 48 -113 3 -6 -3 -2 -13 10 -22 23 -81 147 -90 188 -13
55 12 17 55 -85z m-11 -82 c19 -32 62 -83 95 -114 52 -49 73 -60 160 -89 55
-18 122 -36 148 -39 55 -8 58 -12 86 -115 19 -71 57 -207 66 -239 4 -11 -3
-16 -20 -18 -41 -3 -83 -30 -100 -62 -20 -39 -27 -131 -15 -200 5 -30 12 -71
15 -90 l5 -35 -40 45 c-167 186 -350 583 -451 980 -35 137 -38 194 -6 99 12
-36 38 -91 57 -123z m1381 162 c1 -25 5 -49 13 -83 4 -16 -3 -28 -27 -45 -239
-178 -473 -255 -779 -259 -121 -2 -205 8 -294 36 l-51 16 28 42 28 42 68 -18
c54 -14 99 -17 218 -15 83 2 161 6 175 10 13 3 42 8 64 12 71 10 248 74 340
122 57 30 110 67 145 103 31 30 59 56 64 57 4 1 7 -8 8 -20z m-985 -246 c-6
-5 -86 18 -86 24 0 2 12 29 27 59 l28 56 18 -67 c10 -36 16 -68 13 -72z m967
26 c3 -24 4 -122 3 -218 -2 -138 -8 -195 -25 -269 -59 -256 -182 -441 -374
-568 -71 -46 -186 -103 -210 -103 -16 0 -73 208 -82 300 -17 156 -38 243 -65
270 -18 18 -126 377 -116 387 2 3 55 6 118 8 62 2 138 6 168 10 157 20 359 93
495 180 39 24 73 45 76 45 4 0 9 -19 12 -42z m-772 -604 c17 -16 45 -131 54
-229 4 -33 8 -70 10 -83 2 -12 6 -100 10 -195 7 -200 8 -210 40 -251 38 -50
95 -210 165 -461 30 -106 38 -124 71 -156 l38 -35 -67 -66 c-90 -88 -133 -108
-161 -74 -10 12 -7 19 17 36 37 27 76 104 75 146 -1 35 -226 493 -267 543 -6
8 -12 26 -12 40 -1 14 -11 64 -22 111 -23 95 -60 259 -68 305 -3 17 -11 58
-18 93 -17 85 -20 185 -6 228 22 65 95 89 141 48z m-211 -309 c5 -3 10 -12 10
-20 0 -13 -104 -144 -181 -230 -58 -63 -79 -90 -80 -100 -5 -93 -30 -158 -160
-420 -91 -183 -101 -208 -91 -230 20 -44 7 -55 -72 -57 -114 -2 -137 0 -163
17 -41 27 -26 49 37 55 79 8 125 34 149 83 21 44 153 506 155 544 1 12 9 30
18 40 8 10 37 56 63 103 26 47 83 145 127 218 l80 133 49 -65 c27 -35 53 -67
59 -71z m70 -73 c0 -4 20 -97 45 -207 25 -110 45 -208 45 -218 0 -10 10 -33
23 -50 41 -55 249 -479 241 -487 -31 -29 -610 -34 -696 -5 -7 2 -31 6 -53 9
-22 3 -51 8 -65 11 -14 3 -40 8 -57 11 -23 4 -33 12 -33 25 0 10 40 98 89 196
121 240 159 335 166 409 2 23 14 48 32 68 61 65 86 93 155 178 61 75 73 86 89
77 11 -5 19 -13 19 -17z"/>
<path d="M1900 3908 c-29 -9 -60 -55 -60 -88 0 -31 29 -76 57 -89 38 -18 66
-13 102 17 26 22 33 35 33 63 0 78 -60 122 -132 97z m93 -49 c27 -37 16 -82
-26 -102 -35 -17 -60 -10 -88 26 -20 24 -10 71 18 93 27 21 73 13 96 -17z"/>
</g>
</svg>
